<svg width="28" height="31" viewBox="0 0 28 31" fill="none" xmlns="http://www.w3.org/2000/svg">
<path id="Ellipse 21" d="M23.7438 17.9904C26.886 18.8794 28.7857 22.2704 26.7581 24.8302C25.8184 26.0166 24.6977 27.0628 23.4267 27.9259C20.5076 29.9083 16.983 30.7981 13.4726 30.4388C9.9623 30.0796 6.69099 28.4943 4.23389 25.9617C1.77678 23.4291 0.291187 20.1113 0.0383106 16.5917C-0.214566 13.0721 0.781464 9.57606 2.85127 6.7182C4.92109 3.86035 7.93216 1.82368 11.3551 0.96629C14.778 0.108904 18.3936 0.485693 21.5662 2.03041C22.9475 2.70295 24.2063 3.57813 25.3059 4.61803C27.6786 6.86172 26.2832 10.4895 23.3004 11.8185L19.925 13.3224C18.8063 13.8208 17.4905 13.1987 16.3894 12.6626C15.718 12.3357 14.9528 12.256 14.2284 12.4374C13.504 12.6189 12.8668 13.0499 12.4287 13.6547C11.9907 14.2595 11.7799 14.9994 11.8334 15.7443C11.8869 16.4891 12.2013 17.1913 12.7213 17.7273C13.2413 18.2632 13.9337 18.5987 14.6766 18.6748C15.4195 18.7508 16.1654 18.5625 16.7832 18.1429C17.7963 17.4549 19.0097 16.6512 20.1881 16.9845L23.7438 17.9904Z" fill="#35AFBF"/>
</svg>
